<svg
        xmlns="http://www.w3.org/2000/svg"
        width="100"
        height="100"
        viewBox="0 0 64 64"
        fill=""
        stroke="black"
        stroke-linecap="round"
        stroke-linejoin="round"
        stroke-width="2"
>
    <!-- Ghost Outline with Wavy Bottom -->
    <path
            d="M32 2C18.745 2 8 12.745 8 26V48C8 49.104 8.896 50 10 50C11.104 50 12 49.104 12 48V46C14 48 18 48 20 46C22 48 26 48 28 46C30 48 34 48 36 46C38 48 42 48 44 46C46 48 50 48 52 46V48C52 49.104 52.896 50 54 50C55.104 50 56 49.104 56 48V26C56 12.745 45.255 2 32 2z"
            fill="none"
            stroke="#000"
    />
    <!-- Eyes -->
    <circle cx="24" cy="24" r="2" fill="#000" />
    <circle cx="40" cy="24" r="2" fill="#000" />
    <!-- Sad Mouth -->
    <path d="M28 34C30 32 34 32 36 34" fill="none" stroke="#000" />
</svg>
